<svg xmlns="http://www.w3.org/2000/svg" xmlns:xlink="http://www.w3.org/1999/xlink" width="24" height="24" preserveAspectRatio="xMidYMid meet" viewBox="0 0 16 16" style="-ms-transform: rotate(360deg); -webkit-transform: rotate(360deg); transform: rotate(360deg);"><g fill="#eaeaea"><path d="M13.468 12.37C12.758 11.226 11.195 10 8 10s-4.757 1.225-5.468 2.37A6.987 6.987 0 0 0 8 15a6.987 6.987 0 0 0 5.468-2.63z"/><path fill-rule="evenodd" d="M8 9a3 3 0 1 0 0-6a3 3 0 0 0 0 6z"/><path fill-rule="evenodd" d="M8 1a7 7 0 1 0 0 14A7 7 0 0 0 8 1zM0 8a8 8 0 1 1 16 0A8 8 0 0 1 0 8z"/></g><rect x="0" y="0" width="16" height="16" fill="rgba(0, 0, 0, 0)" /></svg>